Contains German and English audio tracks
Mit deutscher und englischer Audiospur

Sex, Drogen und die erste Liebe: Die Erlebnisse dieser Teenagerclique aus Bristol sind in Großbritannien längst "talk of the town". "Skins" wagt einen ungeschönten Blick auf den Alltag ganz normaler Jugendlicher. Der prämierte Serienhit ist alles andere als eine gewöhnliche Teenie-Soap: britisch, ironisch und realistisch.
 
http://thetvdb.com/?tab=series&id=79773&lid=14

Technisches:
General
Unique ID : 222846136440087873414839784137696285874 (0xA7A69ACEAC93781A8421CE54A9BD14B2)
Complete name : Skins - S02E01 - Tony und Maxxie.mkv
Format : Matroska
File size : 1.37 GiB
Duration : 47mn 25s
Overall bit rate : 4 125 Kbps
Encoded date : UTC 2011-06-01 13:34:47
Writing application : mkvmerge v4.3.0 ('Escape from the Island') built on Sep 5 2010 10:30:51
Writing library : libebml v1.0.0 + libmatroska v1.0.0

Video
ID : 1
Format : AVC
Format/Info : Advanced Video Codec
Format profile : High@L4.1
Format settings, CABAC : Yes
Format settings, ReFrames : 5 frames
Codec ID : V_MPEG4/ISO/AVC
Duration : 47mn 25s
Bit rate mode : Variable
Bit rate : 3 357 Kbps
Maximum bit rate : 40.0 Mbps
Width : 1 280 pixels
Height : 720 pixels
Display aspect ratio : 16:9
Frame rate : 25.000 fps
Color space : YUV
Chroma subsampling : 4:2:0
Bit depth : 8 bits
Scan type : Progressive
Bits/(Pixel*Frame) : 0.146
Stream size : 1.08 GiB (79%)
Writing library : x264 core 112 r1867 22bfd31
Encoding settings : cabac=1 / ref=6 / deblock=1:0:0 / analyse=0x3:0x113 / me=umh / subme=7 / psy=1 / psy_rd=1.00:0.00 / mixed_ref=1 / me_range=16 / chroma_me=1 / trellis=2 / 8x8dct=1 / cqm=0 / deadzone=21,11 / fast_pskip=0 / chroma_qp_offset=-2 / threads=36 / sliced_threads=0 / slices=4 / nr=0 / decimate=0 / interlaced=0 / constrained_intra=0 / bframes=3 / b_pyramid=1 / b_adapt=2 / b_bias=0 / direct=3 / weightb=1 / open_gop=2 / weightp=2 / keyint=24 / keyint_min=1 / scenecut=40 / intra_refresh=0 / rc_lookahead=24 / rc=2pass / mbtree=1 / bitrate=3357 / ratetol=1.0 / qcomp=0.60 / qpmin=0 / qpmax=51 / qpstep=4 / cplxblur=20.0 / qblur=0.5 / vbv_maxrate=40000 / vbv_bufsize=30000 / nal_hrd=vbr / ip_ratio=1.40 / aq=2:1.00

Audio #1
ID : 2
Format : AC-3
Format/Info : Audio Coding 3
Mode extension : CM (complete main)
Codec ID : A_AC3
Duration : 47mn 25s
Bit rate mode : Constant
Bit rate : 384 Kbps
Channel(s) : 2 channels
Channel positions : Front: L R
Sampling rate : 48.0 KHz
Bit depth : 16 bits
Compression mode : Lossy
Stream size : 130 MiB (9%)
Title : German
Language : German

Audio #2
ID : 3
Format : AC-3
Format/Info : Audio Coding 3
Mode extension : CM (complete main)
Codec ID : A_AC3
Duration : 47mn 25s
Bit rate mode : Constant
Bit rate : 384 Kbps
Channel(s) : 2 channels
Channel positions : Front: L R
Sampling rate : 48.0 KHz
Bit depth : 16 bits
Compression mode : Lossy
Stream size : 130 MiB (9%)
Title : English
Language : English